:FULLY-SPECIFIED
:FORCE-ALL-JOINTS-BE-3DOF
:DEGREES
102
root 7.20286 16.6946 -26.8549 3.14312 8.36055 -4.579
lfemur -25.9437 -1.75626 -9.55491
ltibia 39.1284 -0 0
lfoot -17.0658 -0.893421 -0.121275
ltoes 16.0298 -0 0
rfemur -28.1737 -14.281 17.9787
rtibia 41.7909 -0 0
rfoot -17.4262 0.12346 1.01155
rtoes -20.0288 0 0
lowerback 2.10003 1.83922 1.53512
upperback -0.387444 2.56925 1.61461
thorax -1.41139 1.25779 0.9698
lowerneck -10.3973 -3.98991 2.42956
upperneck -2.01183 -5.57161 1.08008
head 1.07493 -2.76778 -0.263824
lclavicle 9.93923e-015 -9.14409e-015 0
lhumerus -44.3612 -8.30075 92.022
lradius 47.2202 -0 0
lwrist 12.5511 0 0
lhand 1.99104 4.83976 0.0299756
lfingers 7.12502 -0 0
lthumb 27.4923 32.8164 0.0159669
rclavicle 9.93923e-015 -9.14409e-015 0
rhumerus -40.8554 -1.56458 -74.2844
rradius 53.6362 -0 0
rwrist 0.152282 0 0
rhand -10.2182 -14.3602 -0.099524
rfingers 7.12502 -0 0
rthumb 15.751 -43.4581 -0.00635034
103
root 7.23784 16.7056 -26.8391 2.58314 8.40277 -4.35872
lfemur -24.9873 -1.37395 -9.99591
ltibia 38.6549 -0 0
lfoot -16.9022 -1.35523 -0.130513
ltoes 16.7796 -0 0
rfemur -29.8857 -14.3607 17.8237
rtibia 42.0115 -0 0
rfoot -16.4222 0.750977 1.08906
rtoes -20.0549 0 0
lowerback 2.65028 1.65717 1.35032
upperback -0.156955 2.33374 1.61053
thorax -1.47391 1.13991 1.08228
lowerneck -10.4695 -3.90055 2.37045
upperneck -1.87941 -5.45102 1.07914
head 1.13329 -2.70575 -0.252125
lclavicle 9.93923e-015 -9.14409e-015 0
lhumerus -44.1839 -8.5872 92.0448
lradius 47.3082 -0 0
lwrist 12.5336 0 0
lhand 2.21423 4.9234 0.032257
lfingers 7.12502 -0 0
lthumb 27.7054 32.8631 0.0171821
rclavicle 9.93923e-015 -9.14409e-015 0
rhumerus -40.8451 -1.72438 -73.4591
rradius 54.1181 -0 0
rwrist 0.0702246 0 0
rhand -9.49464 -14.4459 -0.107117
rfingers 7.12502 -0 0
rthumb 16.4457 -43.4637 -0.00683469
104
root 7.27282 16.7167 -26.8232 2.02327 8.44712 -4.13885
lfemur -24.0341 -0.984356 -10.4304
ltibia 38.1813 -0 0
lfoot -16.7386 -1.81707 -0.138433
ltoes 17.5295 -0 0
rfemur -31.598 -14.4448 17.6711
rtibia 42.232 -0 0
rfoot -15.4173 1.37977 1.15556
rtoes -20.0809 0 0
lowerback 3.20107 1.47691 1.16379
upperback 0.0735139 2.09824 1.60549
thorax -1.53665 1.02216 1.19488
lowerneck -10.5418 -3.81127 2.31125
upperneck -1.74703 -5.33042 1.07847
head 1.19166 -2.64373 -0.240363
lclavicle 9.93923e-015 -9.14409e-015 0
lhumerus -44.0067 -8.87372 92.0667
lradius 47.3962 -0 0
lwrist 12.5161 0 0
lhand 2.43743 5.00705 0.0342125
lfingers 7.12502 -0 0
lthumb 27.9186 32.9098 0.0182237
rclavicle 9.93923e-015 -9.14409e-015 0
rhumerus -40.8371 -1.88431 -72.6337
rradius 54.5999 -0 0
rwrist -0.0118328 0 0
rhand -8.77103 -14.5316 -0.113627
rfingers 7.12502 -0 0
rthumb 17.1403 -43.4694 -0.00724998
105
root 7.3078 16.7277 -26.8074 1.46351 8.49359 -3.9194
lfemur -23.0839 -0.587598 -10.8583
ltibia 37.7078 -0 0
lfoot -16.5749 -2.27892 -0.145034
ltoes 18.2793 -0 0
rfemur -33.3108 -14.5332 17.5211
rtibia 42.4526 -0 0
rfoot -14.4117 2.00965 1.21102
rtoes -20.107 0 0
lowerback 3.75239 1.29845 0.975545
upperback 0.303971 1.86276 1.59951
thorax -1.59962 0.904539 1.30761
lowerneck -10.6142 -3.72207 2.25193
upperneck -1.61467 -5.20982 1.07809
head 1.25004 -2.58173 -0.228538
lclavicle 9.93923e-015 -9.14409e-015 0
lhumerus -43.8294 -9.16031 92.0877
lradius 47.4842 -0 0
lwrist 12.4986 0 0
lhand 2.66062 5.09071 0.0358422
lfingers 7.12502 -0 0
lthumb 28.1317 32.9564 0.0190917
rclavicle 9.93923e-015 -9.14409e-015 0
rhumerus -40.8314 -2.04433 -71.8082
rradius 55.0818 -0 0
rwrist -0.0938903 0 0
rhand -8.04742 -14.6175 -0.119054
rfingers 7.12502 -0 0
rthumb 17.8349 -43.4751 -0.00759615
106
root 7.34278 16.7388 -26.7915 0.903862 8.54218 -3.70039
lfemur -22.1368 -0.183811 -11.2796
ltibia 37.2342 -0 0
lfoot -16.4112 -2.7408 -0.150316
ltoes 19.0291 -0 0
rfemur -35.024 -14.626 17.3739
rtibia 42.6732 -0 0
rfoot -13.4055 2.64042 1.25542
rtoes -20.1331 0 0
lowerback 4.30427 1.12181 0.785608
upperback 0.534424 1.62731 1.59259
thorax -1.66283 0.787038 1.42046
lowerneck -10.6867 -3.63294 2.19251
upperneck -1.48233 -5.08923 1.07799
head 1.30842 -2.51973 -0.21665
lclavicle 9.93923e-015 -9.14409e-015 0
lhumerus -43.652 -9.44696 92.1079
lradius 47.5722 -0 0
lwrist 12.4811 0 0
lhand 2.88382 5.17438 0.037146
lfingers 7.12502 -0 0
lthumb 28.3448 33.0031 0.0197862
rclavicle 9.93923e-015 -9.14409e-015 0
rhumerus -40.828 -2.20443 -70.9827
rradius 55.5636 -0 0
rwrist -0.175948 0 0
rhand -7.3238 -14.7034 -0.123396
rfingers 7.12502 -0 0
rthumb 18.5295 -43.4809 -0.00787314
107
root 7.37776 16.7498 -26.7757 0.344335 8.59288 -3.48185
lfemur -21.1926 0.226873 -11.6941
ltibia 36.7607 -0 0
lfoot -16.2474 -3.20268 -0.154277
ltoes 19.779 -0 0
rfemur -36.7377 -14.723 17.2295
rtibia 42.8938 -0 0
rfoot -12.399 3.27188 1.28874
rtoes -20.1592 0 0
lowerback 4.8567 0.94701 0.593988
upperback 0.764881 1.39189 1.58471
thorax -1.72626 0.669662 1.53344
lowerneck -10.7593 -3.54388 2.13298
upperneck -1.35003 -4.96863 1.07817
head 1.36682 -2.45775 -0.2047
lclavicle 9.93923e-015 -9.14409e-015 0
lhumerus -43.4746 -9.73366 92.1271
lradius 47.6602 -0 0
lwrist 12.4636 0 0
lhand 3.10702 5.25804 0.0381239
lfingers 7.12502 -0 0
lthumb 28.5579 33.0498 0.020307
rclavicle 9.93923e-015 -9.14409e-015 0
rhumerus -40.8269 -2.36455 -70.157
rradius 56.0455 -0 0
rwrist -0.258005 0 0
rhand -6.60017 -14.7893 -0.126654
rfingers 7.12502 -0 0
rthumb 19.2242 -43.4866 -0.00808093
